<svg width="1024" height="1024" viewBox="0 0 1024 1024" fill="none" xmlns="http://www.w3.org/2000/svg">
<path d="M416 581.563V467.167C416 456.53 418.762 448.049 424.285 441.723C429.808 435.397 437.081 430.58 446.104 427.273C455.127 423.965 465.415 421.758 476.967 420.65C488.519 419.542 500.308 418.992 512.333 419C525.579 419 538.074 419.554 549.819 420.662C561.564 421.77 571.799 423.977 580.525 427.285C589.251 430.592 596.123 435.409 601.141 441.735C606.158 448.061 608.667 456.538 608.667 467.167V581.563C608.667 593.404 604.605 603.39 596.481 611.522C588.356 619.654 578.37 623.716 566.521 623.708L572.542 629.729C575.953 633.141 576.756 637.006 574.95 641.325C573.144 645.644 569.832 647.8 565.016 647.792C563.611 647.792 562.258 647.543 560.958 647.045C559.657 646.547 558.501 645.793 557.49 644.781L536.417 623.708H488.25L467.177 644.781C466.174 645.785 465.018 646.539 463.709 647.045C462.401 647.551 461.052 647.8 459.663 647.792C455.047 647.792 451.788 645.636 449.885 641.325C447.983 637.014 448.729 633.149 452.125 629.729L458.146 623.708C446.305 623.708 436.318 619.646 428.186 611.522C420.054 603.398 415.992 593.412 416 581.563ZM440.083 515.333H500.292V479.208H440.083V515.333ZM524.375 515.333H584.583V479.208H524.375V515.333ZM470.188 587.583C475.406 587.583 479.72 585.878 483.132 582.466C486.544 579.054 488.25 574.739 488.25 569.521C488.25 564.303 486.544 559.988 483.132 556.576C479.72 553.164 475.406 551.458 470.188 551.458C464.969 551.458 460.655 553.164 457.243 556.576C453.831 559.988 452.125 564.303 452.125 569.521C452.125 574.739 453.831 579.054 457.243 582.466C460.655 585.878 464.969 587.583 470.188 587.583ZM554.479 587.583C559.697 587.583 564.012 585.878 567.424 582.466C570.836 579.054 572.542 574.739 572.542 569.521C572.542 564.303 570.836 559.988 567.424 556.576C564.012 553.164 559.697 551.458 554.479 551.458C549.261 551.458 544.946 553.164 541.534 556.576C538.123 559.988 536.417 564.303 536.417 569.521C536.417 574.739 538.123 579.054 541.534 582.466C544.946 585.878 549.261 587.583 554.479 587.583Z" fill="#232F3F" style="fill:#232F3F;fill:color(display-p3 0.1373 0.1843 0.2471);fill-opacity:1;"/>
<g filter="url(#filter0_d_2004_9)">
<rect x="291" y="670" width="443" height="148" rx="32" fill="#232F3F" style="fill:#232F3F;fill:color(display-p3 0.1373 0.1843 0.2471);fill-opacity:1;" shape-rendering="crispEdges"/>
<path d="M334.072 774V725.027H316.969V714.814H363.603V725.027H346.459V774H334.072ZM358.723 774L379.394 714.814H390.305V726.299H386.531L371.725 774H358.723ZM369.838 759.645L372.873 750.375H400.477L403.512 759.645H369.838ZM401.584 774L386.777 726.299V714.814H393.955L414.586 774H401.584ZM444.445 775.025C440.016 775.025 436.037 774.328 432.51 772.934C429.01 771.539 426.029 769.516 423.568 766.863C421.107 764.184 419.221 760.943 417.908 757.143C416.596 753.342 415.939 749.035 415.939 744.223V744.182C415.939 737.838 417.088 732.41 419.385 727.898C421.682 723.359 424.936 719.873 429.146 717.439C433.385 715.006 438.389 713.789 444.158 713.789C448.916 713.789 453.113 714.637 456.75 716.332C460.387 718 463.34 720.297 465.609 723.223C467.906 726.148 469.383 729.471 470.039 733.189L470.162 733.764H457.734L457.57 733.354C456.586 730.482 454.945 728.254 452.648 726.668C450.352 725.082 447.535 724.289 444.199 724.289C440.945 724.289 438.143 725.068 435.791 726.627C433.467 728.158 431.676 730.4 430.418 733.354C429.187 736.307 428.572 739.875 428.572 744.059V744.1C428.572 747.299 428.941 750.17 429.68 752.713C430.418 755.229 431.484 757.361 432.879 759.111C434.301 760.861 435.996 762.201 437.965 763.131C439.961 764.061 442.189 764.525 444.65 764.525C447.33 764.525 449.695 764.033 451.746 763.049C453.824 762.037 455.451 760.629 456.627 758.824C457.83 756.992 458.486 754.859 458.596 752.426L458.637 751.564H445.102V742.336H470.695V749.145C470.695 753.164 470.094 756.773 468.891 759.973C467.715 763.172 465.992 765.893 463.723 768.135C461.48 770.377 458.732 772.086 455.478 773.262C452.225 774.437 448.547 775.025 444.445 775.025ZM521.883 775.025C516.113 775.025 511.109 773.795 506.871 771.334C502.66 768.873 499.406 765.359 497.109 760.793C494.84 756.199 493.705 750.73 493.705 744.387V744.346C493.705 737.975 494.853 732.52 497.15 727.98C499.447 723.414 502.701 719.914 506.912 717.48C511.123 715.02 516.113 713.789 521.883 713.789C526.668 713.789 530.934 714.719 534.68 716.578C538.426 718.437 541.434 720.994 543.703 724.248C545.973 727.475 547.299 731.193 547.682 735.404L547.723 735.773H535.664L535.5 735.076C535.035 732.889 534.201 730.988 532.998 729.375C531.795 727.762 530.25 726.518 528.363 725.643C526.504 724.74 524.344 724.289 521.883 724.289C518.711 724.289 515.963 725.096 513.639 726.709C511.314 728.322 509.51 730.633 508.225 733.641C506.967 736.621 506.338 740.176 506.338 744.305V744.346C506.338 748.502 506.967 752.098 508.225 755.133C509.51 758.141 511.314 760.465 513.639 762.105C515.99 763.719 518.738 764.525 521.883 764.525C524.262 764.525 526.381 764.088 528.24 763.213C530.127 762.338 531.699 761.08 532.957 759.439C534.215 757.771 535.103 755.762 535.623 753.41L535.705 753H547.764L547.723 753.451C547.34 757.635 546 761.354 543.703 764.607C541.434 767.861 538.426 770.418 534.68 772.277C530.934 774.109 526.668 775.025 521.883 775.025ZM549.609 774L570.281 714.814H581.191V726.299H577.418L562.611 774H549.609ZM560.725 759.645L563.76 750.375H591.363L594.398 759.645H560.725ZM592.471 774L577.664 726.299V714.814H584.842L605.473 774H592.471ZM611.543 774V714.814H623.93V763.787H649.81V774H611.543ZM681.023 775.025C675.254 775.025 670.25 773.795 666.012 771.334C661.801 768.873 658.547 765.359 656.25 760.793C653.98 756.199 652.846 750.73 652.846 744.387V744.346C652.846 737.975 653.994 732.52 656.291 727.98C658.588 723.414 661.842 719.914 666.053 717.48C670.264 715.02 675.254 713.789 681.023 713.789C685.809 713.789 690.074 714.719 693.82 716.578C697.566 718.437 700.574 720.994 702.844 724.248C705.113 727.475 706.439 731.193 706.822 735.404L706.863 735.773H694.805L694.641 735.076C694.176 732.889 693.342 730.988 692.139 729.375C690.935 727.762 689.391 726.518 687.504 725.643C685.644 724.74 683.484 724.289 681.023 724.289C677.852 724.289 675.103 725.096 672.779 726.709C670.455 728.322 668.65 730.633 667.365 733.641C666.107 736.621 665.478 740.176 665.478 744.305V744.346C665.478 748.502 666.107 752.098 667.365 755.133C668.65 758.141 670.455 760.465 672.779 762.105C675.131 763.719 677.879 764.525 681.023 764.525C683.402 764.525 685.521 764.088 687.381 763.213C689.268 762.338 690.84 761.08 692.098 759.439C693.355 757.771 694.244 755.762 694.764 753.41L694.846 753H706.904L706.863 753.451C706.48 757.635 705.141 761.354 702.844 764.607C700.574 767.861 697.566 770.418 693.82 772.277C690.074 774.109 685.809 775.025 681.023 775.025Z" fill="#F0F0F0" style="fill:#F0F0F0;fill:color(display-p3 0.9412 0.9412 0.9412);fill-opacity:1;"/>
</g>
<defs>
<filter id="filter0_d_2004_9" x="287" y="670" width="451" height="156" filterUnits="userSpaceOnUse" color-interpolation-filters="sRGB">
<feFlood flood-opacity="0" result="BackgroundImageFix"/>
<feColorMatrix in="SourceAlpha" type="matrix" values="0 0 0 0 0 0 0 0 0 0 0 0 0 0 0 0 0 0 127 0" result="hardAlpha"/>
<feOffset dy="4"/>
<feGaussianBlur stdDeviation="2"/>
<feComposite in2="hardAlpha" operator="out"/>
<feColorMatrix type="matrix" values="0 0 0 0 0 0 0 0 0 0 0 0 0 0 0 0 0 0 0.25 0"/>
<feBlend mode="normal" in2="BackgroundImageFix" result="effect1_dropShadow_2004_9"/>
<feBlend mode="normal" in="SourceGraphic" in2="effect1_dropShadow_2004_9" result="shape"/>
</filter>
</defs>
</svg>
